Coordinates
version=1
nRows=26
nColumns=22
inDegrees=yes

Units are S.I. units (second, meters, Newtons, ...)
If the header above contains a line with 'inDegrees', this indicates whether rotational values are in degrees (yes) or radians (no).

endheader
time	pelvis_tilt	pelvis_list	pelvis_rotation	pelvis_tx	pelvis_ty	pelvis_tz	hip_flexion_r	hip_adduction_r	hip_rotation_r	knee_angle_r	ankle_angle_r	subtalar_angle_r	hip_flexion_l	hip_adduction_l	hip_rotation_l	knee_angle_l	ankle_angle_l	subtalar_angle_l	lumbar_extension	lumbar_bending	lumbar_rotation
      3.54000000	      1.15929750	     -3.12651300	    -84.67717768	      0.38751040	      0.88150348	      0.74446687	    -13.30132030	     -1.54942156	      0.99532608	    -31.05725595	     11.22652580	     -1.38583110	     23.97928914	      0.18207566	      0.45359303	    -28.59995060	      3.35959289	      2.56255022	     -5.69236634	     -0.33959864	      6.83275815
      3.55000000	      1.28177672	     -2.97480017	    -84.76620774	      0.39099458	      0.88269252	      0.75162414	    -12.41878426	     -1.88318145	      1.20982197	    -32.87919105	      9.59976576	     -0.65063401	     23.46017976	      0.43836760	      0.06763084	    -28.37132791	      3.67810647	      2.30625047	     -5.55269683	     -0.55624230	      6.83846518
      3.56000000	      1.42438829	     -2.85990220	    -84.94347778	      0.39417935	      0.88394242	      0.75855584	    -11.43532907	     -2.24433842	      1.46199991	    -34.87588723	      8.18285916	     -0.41772268	     22.90062714	      0.68014011	     -0.38473299	    -28.12635662	      3.90198725	      2.17619132	     -5.48038800	     -0.79985590	      6.88654208
      3.57000000	      1.49114965	     -2.75675646	    -85.12381403	      0.39724978	      0.88515482	      0.76521281	    -10.34036206	     -2.53249687	      1.62777647	    -36.99355495	      6.89077043	      0.18980529	     22.38301910	      0.87272990	     -0.69752307	    -27.92694056	      4.17309443	      1.83138877	     -5.43912108	     -0.94057636	      6.91804653
      3.58000000	      1.58586523	     -2.71471323	    -85.36478728	      0.40010020	      0.88641178	      0.77167361	     -9.20938938	     -2.86982523	      1.74997558	    -39.20077583	      5.91071949	      0.35047060	     21.81187173	      1.07866744	     -1.02265382	    -27.73333606	      4.38197236	      1.64032805	     -5.48885892	     -1.11069592	      6.97664007
      3.59000000	      1.65225714	     -2.68231634	    -85.62606404	      0.40281431	      0.88760022	      0.77790730	     -8.00448202	     -3.18845439	      1.82763581	    -41.43756572	      5.18876231	      0.52177133	     21.27873885	      1.27080044	     -1.26752630	    -27.59136971	      4.62438716	      1.34140986	     -5.56286060	     -1.23961806	      7.00378379
      3.60000000	      1.69994473	     -2.66366898	    -85.90675990	      0.40540501	      0.88873028	      0.78393193	     -6.75567434	     -3.49809860	      1.87201514	    -43.63843228	      4.75155868	      0.58633196	     20.76757689	      1.45489062	     -1.45753302	    -27.48447988	      4.90209801	      0.90158616	     -5.66331707	     -1.33616840	      6.99551141
      3.61000000	      1.77034873	     -2.68442124	    -86.23669699	      0.40781729	      0.88983393	      0.78977479	     -5.50455907	     -3.86082087	      1.86784744	    -45.76042483	      4.69319438	      0.41009663	     20.22376694	      1.65542019	     -1.64611448	    -27.37984625	      5.16480692	      0.60515394	     -5.82111141	     -1.45988182	      7.03233925
      3.62000000	      1.83997555	     -2.69198895	    -86.60876386	      0.41003745	      0.89084349	      0.79540098	     -4.20725560	     -4.22468200	      1.88815970	    -47.75356993	      4.96334375	      0.05850773	     19.71601765	      1.84549039	     -1.85621664	    -27.28595806	      5.43909281	      0.26006587	     -5.97226180	     -1.58424803	      7.02911558
      3.63000000	      1.85448931	     -2.67736519	    -87.00687571	      0.41209696	      0.89176556	      0.80078240	     -2.86770867	     -4.52918993	      1.90337618	    -49.56079578	      5.47850281	     -0.85825746	     19.25915176	      1.98643077	     -1.99647589	    -27.20637345	      5.79139417	     -0.34770158	     -6.10618786	     -1.64944234	      7.06336298
      3.64000000	      1.88220624	     -2.68670220	    -87.44259671	      0.41396947	      0.89267801	      0.80596239	     -1.55584666	     -4.84229049	      1.93951534	    -51.16076232	      6.26860565	     -1.85661764	     18.78164265	      2.11666943	     -2.21505226	    -27.11573340	      6.12039299	     -0.77669646	     -6.28071549	     -1.73667604	      7.08378553
      3.65000000	      1.89354667	     -2.69102359	    -87.91080689	      0.41568588	      0.89357133	      0.81091322	     -0.24536232	     -5.11689906	      2.02729234	    -52.52839669	      7.19809619	     -2.99571521	     18.31483368	      2.21738758	     -2.46569988	    -27.00536599	      6.44556705	     -1.18487292	     -6.46008863	     -1.80790649	      7.11027129
      3.66000000	      1.88029379	     -2.69576993	    -88.40485180	      0.41724285	      0.89446938	      0.81562955	      1.04995643	     -5.32491214	      2.18798363	    -53.65298801	      8.18397238	     -4.20748814	     17.85086992	      2.27993604	     -2.73994824	    -26.87136679	      6.75302866	     -1.57307497	     -6.65369331	     -1.85965702	      7.13457810
      3.67000000	      1.84369750	     -2.69689433	    -88.92174974	      0.41865740	      0.89537125	      0.82010691	      2.32890370	     -5.46121806	      2.42595244	    -54.53192980	      9.15861282	     -5.38447237	     17.39566309	      2.30469887	     -3.04799413	    -26.71529888	      7.03940429	     -1.93156611	     -6.85890145	     -1.89138397	      7.14869616
      3.68000000	      1.78497171	     -2.68972233	    -89.44508015	      0.41995252	      0.89626638	      0.82437303	      3.57947507	     -5.52311139	      2.72456635	    -55.15620771	     10.07674376	     -6.47987954	     16.95531756	      2.29257912	     -3.40186903	    -26.54060616	      7.32234067	     -2.26208431	     -7.06532654	     -1.90296795	      7.11085907
      3.69000000	      1.70716636	     -2.66866566	    -89.99438882	      0.42111100	      0.89712654	      0.82837170	      4.82844102	     -5.50955962	      3.10415650	    -55.56082726	     10.88710641	     -7.34995748	     16.54091383	      2.25190993	     -3.76480487	    -26.35400076	      7.55762711	     -2.55154689	     -7.28119038	     -1.90258172	      7.09247428
      3.70000000	      1.61196541	     -2.62604442	    -90.54004174	      0.42216407	      0.89795693	      0.83220088	      6.04420742	     -5.42802424	      3.51268188	    -55.71270845	     11.58695261	     -8.00124702	     16.14669680	      2.18352651	     -4.15665836	    -26.13546233	      7.78175712	     -2.80224224	     -7.47652628	     -1.89002521	      7.02804973
      3.71000000	      1.51146692	     -2.57168651	    -91.07739881	      0.42312672	      0.89872302	      0.83581243	      7.22789577	     -5.29793005	      3.93298101	    -55.64760417	     12.19395789	     -8.46351775	     15.79118561	      2.10274530	     -4.56364993	    -25.93632559	      7.99640691	     -3.02655640	     -7.67814834	     -1.87825913	      6.92939951
      3.72000000	      1.41296139	     -2.50939300	    -91.60429020	      0.42400002	      0.89944177	      0.83928801	      8.35847007	     -5.14459588	      4.32410058	    -55.35856171	     12.69947692	     -8.67249362	     15.45150269	      2.01296085	     -5.01322312	    -25.73173047	      8.21261031	     -3.18040604	     -7.87551222	     -1.87624002	      6.78766591
      3.73000000	      1.31037630	     -2.42048106	    -92.11646627	      0.42481090	      0.90008425	      0.84259233	      9.45667289	     -4.95837788	      4.68740686	    -54.86334079	     13.15694602	     -8.83703246	     15.15163307	      1.92322584	     -5.42803037	    -25.52187078	      8.39390842	     -3.36526168	     -8.05513192	     -1.87157284	      6.63873960
      3.74000000	      1.21098512	     -2.32500839	    -92.60357156	      0.42557177	      0.90067738	      0.84577497	     10.48974883	     -4.76587386	      4.97871940	    -54.16812282	     13.56036318	     -8.93158088	     14.86967193	      1.83990201	     -5.82067015	    -25.31298005	      8.56321660	     -3.55726867	     -8.23233110	     -1.87391099	      6.46065703
      3.75000000	      1.11133865	     -2.23358487	    -93.06114122	      0.42628838	      0.90123954	      0.84887081	     11.43643862	     -4.57956645	      5.16125934	    -53.27949485	     13.94152213	     -8.95486741	     14.59422784	      1.75764303	     -6.19455980	    -25.11118490	      8.72829238	     -3.74104367	     -8.41427857	     -1.87681638	      6.26221219
      3.76000000	      1.00668655	     -2.15235477	    -93.48287492	      0.42698574	      0.90178893	      0.85189218	     12.28330960	     -4.39735464	      5.22755310	    -52.21418424	     14.28980381	     -8.93587302	     14.31861784	      1.67562048	     -6.54696924	    -24.91450204	      8.89516289	     -3.93967120	     -8.60625080	     -1.87074116	      6.04133461
      3.77000000	      0.89559650	     -2.08128007	    -93.84130547	      0.42770380	      0.90232406	      0.85486717	     13.01383229	     -4.23702697	      5.13079999	    -50.97698921	     14.65864095	     -8.87219379	     14.05125134	      1.59824418	     -6.83494624	    -24.74113501	      9.02496869	     -4.05900468	     -8.80436076	     -1.85543671	      5.77796967
      3.78000000	      0.73852103	     -2.05939968	    -94.16545571	      0.42839525	      0.90293698	      0.85780608	     13.57720882	     -4.04001730	      4.91649235	    -49.57513426	     14.93932913	     -8.77129645	     13.73151218	      1.47393044	     -7.11831709	    -24.56856245	      9.23605636	     -4.28325544	     -9.05426873	     -1.78398274	      5.54096866
      3.79000000	      0.57398631	     -2.04971293	    -94.41606344	      0.42911502	      0.90354046	      0.86072055	     14.01746294	     -3.86044552	      4.55031834	    -48.05316196	     15.22076976	     -8.62053918	     13.41597240	      1.35457308	     -7.32795722	    -24.41614110	      9.40596553	     -4.45367825	     -9.30492653	     -1.70206288	      5.26845061
